<svg version="1.2" xmlns="http://www.w3.org/2000/svg" viewBox="0 0 243 80" width="243" height="80"><defs><linearGradient id="P" gradientUnits="userSpaceOnUse"/><linearGradient id="g1" x2="1" href="#P" gradientTransform="matrix(153.12,0,0,80.003,-294,39.99)"><stop offset=".13" stop-color="#6a0cf8"/><stop offset=".56" stop-color="#fd16b8"/><stop offset=".97" stop-color="#fdba7f"/></linearGradient></defs><style>.a{fill:#fff}.b{fill:#6a0cf8}.c{fill:url(#g1)}.d{fill:#309}</style><path class="a" d="m114.5 25.2h5.4v4.9c3.6-4.9 8.4-6.5 13.8-5.9 5.5 0.5 9.7 3.3 12.4 7.9 1.7-1.7 3.2-3.5 5-4.9 7.5-5.9 23.7-4.3 26.6 10.7 0.3 1.6 0.5 3.2 0.5 4.8 0.1 8.3 0 16.7 0 25 0 0.2 0 0.4 0 0.7h-5.5v-1.5c0-7.6 0.1-15.3-0.1-23 0-2.4-0.3-4.9-1-7.2-1.5-4.9-5.4-7.6-10.6-7.6-5.2 0-9.1 2.6-10.8 7.4-0.6 1.9-1 3.9-1.1 5.9-0.1 8.2 0 16.3 0 24.4 0 0.6 0 1.1 0 1.7h-5.6q0-0.8 0-1.5c0-7.8 0.1-15.5 0-23.3-0.1-2.5-0.5-5.2-1.3-7.5-1.6-4.8-5.6-7.2-10.8-7.1-5 0.1-8.9 2.7-10.4 7.4-0.7 2.2-1 4.6-1 6.9-0.2 7.8-0.1 15.6-0.1 23.5 0 0.5 0 0.9 0 1.5h-5.4z"/><path fill-rule="evenodd" class="a" d="m98.4 32.7v-22.7h5.4v58.4h-5.4v-7.6c-5 6.6-11.3 9.3-19.1 8.7-6.2-0.5-11.6-3.1-15.8-7.9-7.8-8.8-7.1-22.8 1.4-31 8.1-7.8 24.2-10 33.5 2.1zm0.3 14.3c0-9.9-7.7-17.8-17.3-17.9-10.1-0.1-17.7 7.6-17.8 17.8 0 10.1 7.6 17.6 17.9 17.7 9.4 0 17.1-7.9 17.2-17.6z"/><path fill-rule="evenodd" class="a" d="m44.5 25.3h5.4v43.2h-5.4v-7.3c-4.6 5.7-10.4 8.5-17.7 8.3-7.1-0.2-13.2-2.9-17.7-8.5-7.4-9.4-6.4-22.9 2.2-30.7 4.9-4.5 10.7-6.5 17.2-6.2 6.6 0.3 11.9 3.1 16 8.9zm0.3 21.7c0-9.9-7.8-17.9-17.4-17.9-10.1 0-17.7 7.6-17.7 17.9 0 10 7.5 17.6 17.6 17.6 9.7 0 17.4-7.8 17.5-17.6zm-0.3-14q0 0 0-0.1z"/><path class="a" d="m204.6 25.3h5.4v5.3c0.3-0.2 0.5-0.3 0.6-0.5 4-5.1 9.4-6.6 15.6-5.9 10.5 1.2 15.9 9 16.2 18.2 0.3 8.4 0.1 16.9 0.2 25.4 0 0.2-0.1 0.4-0.1 0.6h-5.5q0-0.7 0-1.5c0-8 0.1-16-0.1-24-0.1-5.4-2.2-9.9-7.3-12.4-8.1-4.2-17.5 0.6-19.2 9.7-0.3 1.5-0.3 3-0.3 4.5-0.1 7.4-0.1 14.8-0.1 22.2v1.5h-5.4z"/><path class="a" d="m188.8 68.5v-43.3h5.4v43.3z"/><path class="a" d="m188.8 19.8v-9.8h5.4v9.8z"/><path fill-rule="evenodd" class="a" d="m-31.2 30.1v-5.4h9.6v43.7h-9.6v-5.2c-0.5 0.5-0.8 0.7-1.1 1-6.6 6.3-16.7 7.6-24.5 3.1-6.3-3.6-9.6-9.3-10.8-16.2-1.3-7.7 0.3-14.7 5.5-20.7 6.6-7.6 18.7-10.1 28-3 0.9 0.8 1.8 1.7 2.9 2.7zm-12 30.1q0 0-0.1 0 0 0 0 0zm9.9-6.6c1.6-3 2-6.2 1.6-9.5-1-8.1-8.9-13.3-16.6-10.7-5.6 1.9-8.4 6.2-9.1 11.9-0.9 7.9 5.2 14.9 14.1 14.9 3.9-0.1 7.6-2.3 10-6.6z"/><path class="a" d="m-107.3 10h10.4v35l0.2 0.1c0.3-0.3 0.6-0.7 0.8-1 4.2-6.1 8.3-12.2 12.5-18.4 0.5-0.8 1-1.1 2-1 3.5 0 7 0 10.8 0-5.4 7.3-10.6 14.3-15.8 21.5 5.9 7.4 11.8 14.8 17.9 22.4-2.7 0-5.1 0-7.5 0-1.9 0-4.6 0-5.8-0.3-0.2 0-2.4-2.9-3.5-4.5q-5.3-7.3-10.5-14.5c-0.3-0.4-0.6-0.7-1.1-1.4v20.6h-10.4z"/><path class="a" d="m-13.5 24.7h10.4v43.8h-10.4z"/><path class="a" d="m-3.1 19.6h-10.4v-9.6h10.4z"/><path fill-rule="evenodd" class="b" d="m-169.2 80c-10.6 0-20.7-4.2-28.3-11.7l-14.1-14.2-14.1 14.2c-7.6 7.5-17.6 11.7-28.3 11.7-10.7 0-20.7-4.2-28.3-11.7-15.6-15.6-15.6-41 0-56.6 15.6-15.6 41-15.6 56.6 0l14.1 14.1 14.2-14.1c15.5-15.6 40.9-15.6 56.5 0l-14.1 14.1c-7.8-7.8-20.5-7.8-28.3 0l-14.1 14.2 14.1 14.1c3.8 3.8 8.8 5.9 14.1 5.9 5.4 0 10.4-2.1 14.2-5.9l14.1 14.2c-7.5 7.5-17.6 11.7-28.3 11.7zm-84.8-60c-5.1 0-10.2 1.9-14.1 5.8-7.8 7.8-7.8 20.5 0 28.3 7.7 7.8 20.4 7.8 28.2 0l14.2-14.1-14.2-14.2c-3.9-3.9-9-5.8-14.1-5.8z"/><path class="c" d="m-282.3 11.7c-7.8 7.8-11.7 18-11.7 28.3h20c0-5.1 1.9-10.3 5.8-14.2 3.9-3.9 9.1-5.8 14.2-5.8 5.1 0 10.2 1.9 14.1 5.8l14.2 14.2 14.1 14.1 14.1 14.2c7.6 7.5 17.6 11.7 28.3 11.7 10.7 0 20.7-4.2 28.3-11.7l-14.1-14.2c-3.8 3.8-8.8 5.9-14.2 5.9-5.3 0-10.3-2.1-14.1-5.9l-14.2-14.1-14.1-14.2-14.1-14.1c-15.6-15.6-41-15.6-56.6 0z"/><path class="d" d="m-225.7 40l14.1-14.2 14.2 14.2-14.2 14.1z"/></svg>