<?xml version="1.0" encoding="UTF-8"?>
<svg version="1.1" viewBox="0 0 2048 2048" width="1280" height="1280" xmlns="http://www.w3.org/2000/svg">
<path transform="translate(621,546)" d="m0 0h17l8 4 14 11 36 28 28 22 13 10 15 12 39 30 42 33 18 13 18 14 20 15 15 12 13 10 14 11 16 13 11 9 17 14 32 26 11 8 13 10 5 3 9-7 17-14 11-9 13-10 15-12 17-13 28-22 38-29 18-14 15-12 13-9 9-3 8 1 8 4 7 8 2 4 1 25v159l-3 8-7 7-36 27-13 10-19 14-13 10-16 12-21 16-36 27-12 8-12 9-18 14-11 8-10 7h-5l-13-10-15-12-17-12-19-14-18-13-16-12-15-11-19-14-21-16-14-10-18-14-18-13-11-7-8-2-9 3-6 4-6 7-2 4-1 6-1 407-4 10-5 6-7 3-6 1h-37l-82-1-22-1-7-3-8-9-3-9v-778l2-9 6-8 5-4z"/>
<path transform="translate(1437,546)" d="m0 0 12 1 7 4 4 5 3 9 1 314v339l-3 36-4 25-14 44-6 12-11 17-14 18-7 7-7 8-17 16-14 12-16 12-22 14-16 8-19 8-29 8-24 5-27 2h-40l-23-3-25-6-20-6-23-10-21-11-18-12-13-10-14-13-8-7-13-13-13-17-10-14-12-21-11-26-9-28-6-25-3-24v-47l2-14 5-8 5-4 8-3 13 1 17 4 25 7 28 8 52 13 10 5 5 6 4 10 1 4 1 16 4 17 5 12 6 9 9 10 8 8 11 7 10 5 15 5 13 2h11l21-3 13-5 12-6 9-7 11-11 9-14 6-13 4-16 1-9v-325l1-223 3-7 7-7 14-11 36-28 17-13 15-12 13-10 10-8 16-13 10-7z" fill="#F59528"/>
<path transform="translate(1462,1224)" d="m0 0h1v10l-4 35-4 16-12 38-6 12-11 17-14 18-7 7-7 8-17 16-14 12-16 12-22 14-16 8-19 8-29 8-24 5-27 2h-40l-23-3-25-6-20-6-23-10-15-8 3-1 16 8 25 10 14 4 12 3 24 4 21 2h25l35-4 18-4 30-10 19-8 16-8 12-7 11-7 16-12 10-9 8-7 11-11 9-11 8-10 14-21 8-14 7-14 10-26 6-20 5-32z" fill="#FDFDFD"/>
<path transform="translate(785,947)" d="m0 0h1v402l-4 10-5 6-7 3-6 1h-37l-82-1v-1l121-1 10-5 5-7 2-8 1-124z" fill="#FAE2C7"/>
<path transform="translate(785,1292)" d="m0 0h1v57l-4 10-5 6-7 3-6 1h-37l-82-1v-1l121-1 10-5 5-7 2-8 1-53z" fill="#FCFBFA"/>
<path transform="translate(1166,980)" d="m0 0 2 1-11 9-19 14-17 13-20 15-12 8-5 4-2-1 10-8 16-12 18-13 13-10 19-14z" fill="#FBE8D3"/>
<path transform="translate(1097,1187)" d="m0 0 5 5 4 10 1 4 1 16 4 17-1 3-6-16-4-30-3-6z" fill="#FDFDFD"/>
<path transform="translate(1072,1050)" d="m0 0 2 1-11 9-22 16-3 2h-5l3-2 11-7 10-8z" fill="#FAE2C7"/>
<path transform="translate(1166,980)" d="m0 0 2 1-11 9-19 14-5 4-3-1 13-10 19-14z" fill="#FADBB7"/>
<path transform="translate(801,919)" d="m0 0 3 1-8 5-6 7-2 4-1 6h-1v-7l4-8 8-7z" fill="#FCF0E2"/>
<path transform="translate(1129,1008)" d="m0 0 2 1-15 12-2-1 5-5z" fill="#FCF4EA"/>
<path transform="translate(1115,1018)" d="m0 0m-2 1 2 1-5 5-6 5-2-1 5-5z" fill="#FBECDB"/>
<path transform="translate(1140,999)" d="m0 0 3 1-10 8-3-1z" fill="#FAE1C3"/>
</svg>
